<?xml version="1.0" standalone="no"?>
<!DOCTYPE svg PUBLIC "-//W3C//DTD SVG 20010904//EN"
 "http://www.w3.org/TR/2001/REC-SVG-20010904/DTD/svg10.dtd">
<svg version="1.0" xmlns="http://www.w3.org/2000/svg"
 width="800.000000pt" height="480.000000pt" viewBox="0 0 800.000000 480.000000"
 preserveAspectRatio="xMidYMid meet">

<g transform="translate(0.000000,480.000000) scale(0.100000,-0.100000)"
fill="#000000" stroke="none">
<path d="M0 2400 l0 -2400 4000 0 4000 0 0 2400 0 2400 -4000 0 -4000 0 0
-2400z m5947 -1416 c35 -26 54 -65 61 -121 l5 -43 -52 0 c-50 0 -51 1 -51 30
0 37 -31 70 -65 70 -50 0 -65 -30 -65 -130 l0 -90 26 16 c36 24 108 22 142 -3
49 -35 62 -77 62 -193 0 -161 -35 -211 -153 -218 -80 -4 -123 17 -155 79 -22
43 -23 51 -20 291 3 231 4 248 24 275 34 46 80 65 151 61 43 -3 71 -10 90 -24z
m401 12 c37 -19 67 -55 81 -95 7 -21 11 -114 11 -246 0 -132 -4 -225 -11 -246
-24 -71 -80 -109 -159 -109 -79 0 -135 38 -159 109 -15 46 -15 446 0 492 24
71 79 109 157 109 29 0 65 -6 80 -14z m762 -4 c53 -26 75 -73 75 -157 -1 -83
-32 -157 -134 -319 -33 -53 -61 -101 -61 -107 0 -5 44 -9 100 -9 l100 0 0 -45
0 -45 -165 0 -165 0 0 39 c0 32 16 65 86 177 115 184 134 225 134 298 0 41 -5
65 -17 78 -17 19 -49 23 -70 10 -15 -10 -33 -57 -33 -88 0 -21 -4 -24 -37 -24
-58 0 -65 9 -57 68 8 64 35 109 77 127 45 20 125 18 167 -3z m-280 -29 c0 -21
-39 -157 -86 -303 -47 -146 -91 -283 -98 -305 -12 -39 -14 -40 -64 -43 -29 -2
-52 0 -52 3 0 6 173 535 187 573 4 9 -21 12 -106 12 l-111 0 0 50 0 50 165 0
165 0 0 -37z m690 19 c23 -11 43 -33 58 -62 21 -42 22 -56 22 -265 0 -209 -1
-223 -22 -265 -33 -65 -69 -80 -195 -80 l-103 0 0 345 0 345 103 0 c77 0 111
-4 137 -18z"/>
<path d="M5795 993 c-35 -9 -72 -41 -86 -75 -19 -45 -20 -479 -1 -523 20 -49
76 -80 141 -80 101 1 141 49 149 177 5 91 -11 168 -42 197 -33 31 -88 38 -136
16 -22 -10 -43 -16 -46 -12 -3 3 -6 46 -6 96 -1 100 13 135 56 143 31 6 81
-14 90 -37 3 -9 6 -28 6 -41 0 -22 4 -24 35 -22 33 2 35 4 35 39 0 89 -93 147
-195 122z m87 -344 c60 -32 66 -228 8 -259 -31 -16 -79 -11 -100 10 -17 17
-20 33 -20 111 0 97 9 125 43 139 30 12 45 12 69 -1z"/>
<path d="M5800 620 c-36 -36 -26 -196 14 -222 20 -14 56 -8 76 12 17 17 20 33
20 103 0 97 -14 127 -61 127 -16 0 -38 -9 -49 -20z"/>
<path d="M6216 990 c-15 -5 -37 -17 -48 -27 -45 -41 -48 -60 -48 -310 0 -218
2 -241 20 -270 29 -49 65 -68 130 -68 65 0 101 19 130 68 18 29 20 52 20 273
0 234 -1 242 -23 275 -39 59 -107 81 -181 59z m114 -88 c19 -23 20 -41 20
-248 0 -219 0 -223 -23 -250 -17 -20 -33 -27 -57 -27 -24 0 -40 7 -57 27 -23
27 -23 31 -23 249 0 188 2 226 16 245 32 46 90 48 124 4z"/>
<path d="M6224 899 c-17 -19 -19 -39 -19 -244 0 -205 2 -225 19 -244 24 -27
68 -27 92 0 17 19 19 39 19 244 0 205 -2 225 -19 244 -11 12 -31 21 -46 21
-15 0 -35 -9 -46 -21z"/>
<path d="M6952 980 c-48 -22 -72 -64 -72 -125 0 -33 2 -35 34 -35 32 0 34 2
39 42 7 49 27 68 73 68 24 0 39 -8 54 -27 19 -24 21 -37 17 -90 -5 -72 -22
-108 -138 -295 -60 -96 -79 -135 -79 -162 l0 -36 145 0 145 0 0 35 0 35 -100
0 c-67 0 -100 4 -100 11 0 6 34 68 76 136 97 158 123 221 124 296 0 83 -20
123 -72 147 -24 11 -56 20 -73 20 -16 0 -49 -9 -73 -20z"/>
<path d="M6520 955 l0 -35 98 0 c58 0 103 -5 109 -11 8 -8 -15 -89 -83 -292
-52 -155 -94 -285 -94 -289 0 -5 16 -8 35 -8 l34 0 81 253 c45 138 88 271 96
295 8 23 14 61 14 82 l0 40 -145 0 -145 0 0 -35z"/>
<path d="M7290 654 l0 -336 98 4 c111 5 152 21 179 71 16 28 18 61 18 262 0
203 -2 234 -18 263 -28 50 -83 72 -189 72 l-88 0 0 -336z m191 256 c22 -1 29
-67 29 -255 0 -215 -6 -249 -44 -261 -33 -11 -89 -6 -98 8 -4 7 -8 124 -8 260
0 278 -2 272 74 257 22 -5 44 -8 47 -9z"/>
<path d="M7380 655 l0 -255 35 0 c25 0 44 8 60 25 25 24 25 25 25 230 0 205 0
206 -25 230 -16 17 -35 25 -60 25 l-35 0 0 -255z"/>
</g>
</svg>
